<mxfile host="app.diagrams.net" modified="2021-01-18T12:06:37.161Z" agent="5.0 (Macintosh; Intel Mac OS X 10_15_7) AppleWebKit/537.36 (KHTML, like Gecko) Chrome/87.0.4280.88 Safari/537.36" etag="IAHY5KW1MmkUQr64cSiZ" version="14.2.3" type="github">
  <diagram id="8jhjOeW3A8tFNFM3j3vJ" name="Page-1">
    <mxGraphModel dx="3153" dy="1833" grid="1" gridSize="10" guides="1" tooltips="1" connect="1" arrows="1" fold="1" page="1" pageScale="1" pageWidth="2336" pageHeight="1654" math="0" shadow="0">
      <root>
        <mxCell id="0" />
        <mxCell id="1" parent="0" />
        <mxCell id="CpujZRGqxjHT9dfPmAvb-1" value="Template" style="swimlane;fontStyle=1;align=center;verticalAlign=top;childLayout=stackLayout;horizontal=1;startSize=26;horizontalStack=0;resizeParent=1;resizeParentMax=0;resizeLast=0;collapsible=1;marginBottom=0;" vertex="1" parent="1">
          <mxGeometry x="388" y="604" width="420" height="210" as="geometry" />
        </mxCell>
        <mxCell id="CpujZRGqxjHT9dfPmAvb-2" value="+ id: string&#xa;- contentWithId: TemplateContent&#xa;+ type: string&#xa;+ authorId: number&#xa;+ content: TemplateRealContent" style="text;strokeColor=none;fillColor=none;align=left;verticalAlign=top;spacingLeft=4;spacingRight=4;overflow=hidden;rotatable=0;points=[[0,0.5],[1,0.5]];portConstraint=eastwest;" vertex="1" parent="CpujZRGqxjHT9dfPmAvb-1">
          <mxGeometry y="26" width="420" height="84" as="geometry" />
        </mxCell>
        <mxCell id="CpujZRGqxjHT9dfPmAvb-3" value="" style="line;strokeWidth=1;fillColor=none;align=left;verticalAlign=middle;spacingTop=-1;spacingLeft=3;spacingRight=3;rotatable=0;labelPosition=right;points=[];portConstraint=eastwest;" vertex="1" parent="CpujZRGqxjHT9dfPmAvb-1">
          <mxGeometry y="110" width="420" height="8" as="geometry" />
        </mxCell>
        <mxCell id="CpujZRGqxjHT9dfPmAvb-4" value="+ collect(): void&#xa;+ cancelCollect(): void&#xa;+ create(): void&#xa;+ modify(): void&#xa;- getContentById(contentWithId: TemplateContent): TemplateRealContent&#xa;+ getById(id: string):Â Template" style="text;strokeColor=none;fillColor=none;align=left;verticalAlign=top;spacingLeft=4;spacingRight=4;overflow=hidden;rotatable=0;points=[[0,0.5],[1,0.5]];portConstraint=eastwest;" vertex="1" parent="CpujZRGqxjHT9dfPmAvb-1">
          <mxGeometry y="118" width="420" height="92" as="geometry" />
        </mxCell>
        <mxCell id="CpujZRGqxjHT9dfPmAvb-5" value="RecommendTemplateList" style="swimlane;fontStyle=1;align=center;verticalAlign=top;childLayout=stackLayout;horizontal=1;startSize=26;horizontalStack=0;resizeParent=1;resizeParentMax=0;resizeLast=0;collapsible=1;marginBottom=0;" vertex="1" parent="1">
          <mxGeometry x="398" y="304" width="440" height="150" as="geometry" />
        </mxCell>
        <mxCell id="CpujZRGqxjHT9dfPmAvb-6" value="+ templateIds: string[]&#xa;+ effectiveTime: Date&#xa;+ expirationTime: Date&#xa;+ isEffective: boolean" style="text;strokeColor=none;fillColor=none;align=left;verticalAlign=top;spacingLeft=4;spacingRight=4;overflow=hidden;rotatable=0;points=[[0,0.5],[1,0.5]];portConstraint=eastwest;" vertex="1" parent="CpujZRGqxjHT9dfPmAvb-5">
          <mxGeometry y="26" width="440" height="64" as="geometry" />
        </mxCell>
        <mxCell id="CpujZRGqxjHT9dfPmAvb-7" value="" style="line;strokeWidth=1;fillColor=none;align=left;verticalAlign=middle;spacingTop=-1;spacingLeft=3;spacingRight=3;rotatable=0;labelPosition=right;points=[];portConstraint=eastwest;" vertex="1" parent="CpujZRGqxjHT9dfPmAvb-5">
          <mxGeometry y="90" width="440" height="8" as="geometry" />
        </mxCell>
        <mxCell id="CpujZRGqxjHT9dfPmAvb-8" value="+ batchAdd(templateIds: []): void&#xa;+ modify(effectiveTime: Date, expirationTime: Date, isEffective: boolean): void&#xa;+ get(): void" style="text;strokeColor=none;fillColor=none;align=left;verticalAlign=top;spacingLeft=4;spacingRight=4;overflow=hidden;rotatable=0;points=[[0,0.5],[1,0.5]];portConstraint=eastwest;" vertex="1" parent="CpujZRGqxjHT9dfPmAvb-5">
          <mxGeometry y="98" width="440" height="52" as="geometry" />
        </mxCell>
        <mxCell id="CpujZRGqxjHT9dfPmAvb-9" value="1" style="endArrow=open;html=1;endSize=12;startArrow=diamondThin;startSize=14;startFill=1;edgeStyle=orthogonalEdgeStyle;align=left;verticalAlign=bottom;entryX=0.5;entryY=0;entryDx=0;entryDy=0;" edge="1" parent="1" target="CpujZRGqxjHT9dfPmAvb-1">
          <mxGeometry relative="1" as="geometry">
            <mxPoint x="598" y="454" as="sourcePoint" />
            <mxPoint x="598" y="544" as="targetPoint" />
            <Array as="points" />
            <mxPoint as="offset" />
          </mxGeometry>
        </mxCell>
        <mxCell id="CpujZRGqxjHT9dfPmAvb-10" value="1" style="endArrow=open;html=1;endSize=12;startArrow=diamondThin;startSize=14;startFill=0;edgeStyle=orthogonalEdgeStyle;align=left;verticalAlign=bottom;" edge="1" parent="1">
          <mxGeometry x="-0.125" relative="1" as="geometry">
            <mxPoint x="808" y="644" as="sourcePoint" />
            <mxPoint x="968" y="644" as="targetPoint" />
            <mxPoint as="offset" />
          </mxGeometry>
        </mxCell>
        <mxCell id="CpujZRGqxjHT9dfPmAvb-11" value="TemplateContent" style="swimlane;fontStyle=1;align=center;verticalAlign=top;childLayout=stackLayout;horizontal=1;startSize=26;horizontalStack=0;resizeParent=1;resizeParentMax=0;resizeLast=0;collapsible=1;marginBottom=0;html=0;" vertex="1" parent="1">
          <mxGeometry x="968" y="584" width="160" height="150" as="geometry" />
        </mxCell>
        <mxCell id="CpujZRGqxjHT9dfPmAvb-12" value="+ canvasId: string&#xa;+ stitchingId: string&#xa;+ frameId: string&#xa;+ stickerId: string&#xa;+ filterId: string" style="text;strokeColor=none;fillColor=none;align=left;verticalAlign=top;spacingLeft=4;spacingRight=4;overflow=hidden;rotatable=0;points=[[0,0.5],[1,0.5]];portConstraint=eastwest;" vertex="1" parent="CpujZRGqxjHT9dfPmAvb-11">
          <mxGeometry y="26" width="160" height="84" as="geometry" />
        </mxCell>
        <mxCell id="CpujZRGqxjHT9dfPmAvb-13" value="" style="line;strokeWidth=1;fillColor=none;align=left;verticalAlign=middle;spacingTop=-1;spacingLeft=3;spacingRight=3;rotatable=0;labelPosition=right;points=[];portConstraint=eastwest;" vertex="1" parent="CpujZRGqxjHT9dfPmAvb-11">
          <mxGeometry y="110" width="160" height="8" as="geometry" />
        </mxCell>
        <mxCell id="CpujZRGqxjHT9dfPmAvb-14" value="+ modify(): void" style="text;strokeColor=none;fillColor=none;align=left;verticalAlign=top;spacingLeft=4;spacingRight=4;overflow=hidden;rotatable=0;points=[[0,0.5],[1,0.5]];portConstraint=eastwest;" vertex="1" parent="CpujZRGqxjHT9dfPmAvb-11">
          <mxGeometry y="118" width="160" height="32" as="geometry" />
        </mxCell>
        <mxCell id="CpujZRGqxjHT9dfPmAvb-15" value="1" style="endArrow=open;html=1;endSize=12;startArrow=diamondThin;startSize=14;startFill=1;edgeStyle=orthogonalEdgeStyle;align=left;verticalAlign=bottom;" edge="1" parent="1">
          <mxGeometry x="-1" y="3" relative="1" as="geometry">
            <mxPoint x="808" y="784" as="sourcePoint" />
            <mxPoint x="968" y="784" as="targetPoint" />
          </mxGeometry>
        </mxCell>
        <mxCell id="CpujZRGqxjHT9dfPmAvb-16" value="TemplateRealContent" style="swimlane;fontStyle=1;align=center;verticalAlign=top;childLayout=stackLayout;horizontal=1;startSize=26;horizontalStack=0;resizeParent=1;resizeParentMax=0;resizeLast=0;collapsible=1;marginBottom=0;html=0;" vertex="1" parent="1">
          <mxGeometry x="968" y="744" width="160" height="170" as="geometry" />
        </mxCell>
        <mxCell id="CpujZRGqxjHT9dfPmAvb-17" value="+ canvas: Canvas&#xa;+ stitching: Stitching&#xa;+ frame: Frame&#xa;+ sticker: Sticker&#xa;+ filter: Filter" style="text;strokeColor=none;fillColor=none;align=left;verticalAlign=top;spacingLeft=4;spacingRight=4;overflow=hidden;rotatable=0;points=[[0,0.5],[1,0.5]];portConstraint=eastwest;" vertex="1" parent="CpujZRGqxjHT9dfPmAvb-16">
          <mxGeometry y="26" width="160" height="94" as="geometry" />
        </mxCell>
        <mxCell id="CpujZRGqxjHT9dfPmAvb-18" value="" style="line;strokeWidth=1;fillColor=none;align=left;verticalAlign=middle;spacingTop=-1;spacingLeft=3;spacingRight=3;rotatable=0;labelPosition=right;points=[];portConstraint=eastwest;" vertex="1" parent="CpujZRGqxjHT9dfPmAvb-16">
          <mxGeometry y="120" width="160" height="8" as="geometry" />
        </mxCell>
        <mxCell id="CpujZRGqxjHT9dfPmAvb-19" value="+ method(type): type" style="text;strokeColor=none;fillColor=none;align=left;verticalAlign=top;spacingLeft=4;spacingRight=4;overflow=hidden;rotatable=0;points=[[0,0.5],[1,0.5]];portConstraint=eastwest;" vertex="1" parent="CpujZRGqxjHT9dfPmAvb-16">
          <mxGeometry y="128" width="160" height="42" as="geometry" />
        </mxCell>
        <mxCell id="CpujZRGqxjHT9dfPmAvb-20" value="1" style="endArrow=open;html=1;endSize=12;startArrow=diamondThin;startSize=14;startFill=1;edgeStyle=orthogonalEdgeStyle;align=left;verticalAlign=bottom;entryX=0.007;entryY=0.664;entryDx=0;entryDy=0;entryPerimeter=0;" edge="1" parent="1" target="CpujZRGqxjHT9dfPmAvb-27">
          <mxGeometry x="-1" y="3" relative="1" as="geometry">
            <mxPoint x="1128" y="764" as="sourcePoint" />
            <mxPoint x="1415" y="724" as="targetPoint" />
            <Array as="points">
              <mxPoint x="1218" y="764" />
              <mxPoint x="1218" y="723" />
            </Array>
          </mxGeometry>
        </mxCell>
        <mxCell id="CpujZRGqxjHT9dfPmAvb-21" value="2" style="endArrow=open;html=1;endSize=12;startArrow=diamondThin;startSize=14;startFill=1;edgeStyle=orthogonalEdgeStyle;align=left;verticalAlign=bottom;entryX=-0.003;entryY=0.08;entryDx=0;entryDy=0;entryPerimeter=0;" edge="1" parent="1" target="CpujZRGqxjHT9dfPmAvb-30">
          <mxGeometry x="-1" y="3" relative="1" as="geometry">
            <mxPoint x="1128" y="804" as="sourcePoint" />
            <mxPoint x="1288" y="804" as="targetPoint" />
          </mxGeometry>
        </mxCell>
        <mxCell id="CpujZRGqxjHT9dfPmAvb-22" value="3" style="endArrow=open;html=1;endSize=12;startArrow=diamondThin;startSize=14;startFill=1;edgeStyle=orthogonalEdgeStyle;align=left;verticalAlign=bottom;entryX=-0.014;entryY=0.348;entryDx=0;entryDy=0;entryPerimeter=0;" edge="1" parent="1" target="CpujZRGqxjHT9dfPmAvb-38">
          <mxGeometry x="-1" y="3" relative="1" as="geometry">
            <mxPoint x="1128" y="834" as="sourcePoint" />
            <mxPoint x="1288" y="834" as="targetPoint" />
            <Array as="points">
              <mxPoint x="1278" y="834" />
              <mxPoint x="1278" y="962" />
            </Array>
          </mxGeometry>
        </mxCell>
        <mxCell id="CpujZRGqxjHT9dfPmAvb-23" value="4" style="endArrow=open;html=1;endSize=12;startArrow=diamondThin;startSize=14;startFill=1;edgeStyle=orthogonalEdgeStyle;align=left;verticalAlign=bottom;" edge="1" parent="1">
          <mxGeometry x="-1" y="3" relative="1" as="geometry">
            <mxPoint x="1128" y="864" as="sourcePoint" />
            <mxPoint x="1405" y="1107" as="targetPoint" />
            <Array as="points">
              <mxPoint x="1228" y="864" />
              <mxPoint x="1228" y="1107" />
            </Array>
          </mxGeometry>
        </mxCell>
        <mxCell id="CpujZRGqxjHT9dfPmAvb-24" value="5" style="endArrow=open;html=1;endSize=12;startArrow=diamondThin;startSize=14;startFill=1;edgeStyle=orthogonalEdgeStyle;align=left;verticalAlign=bottom;entryX=-0.029;entryY=0.647;entryDx=0;entryDy=0;entryPerimeter=0;" edge="1" parent="1" target="CpujZRGqxjHT9dfPmAvb-42">
          <mxGeometry x="-1" y="3" relative="1" as="geometry">
            <mxPoint x="1128" y="904" as="sourcePoint" />
            <mxPoint x="1288" y="904" as="targetPoint" />
            <Array as="points">
              <mxPoint x="1198" y="904" />
              <mxPoint x="1198" y="1307" />
            </Array>
          </mxGeometry>
        </mxCell>
        <mxCell id="CpujZRGqxjHT9dfPmAvb-25" value="Canvas" style="swimlane;fontStyle=1;align=center;verticalAlign=top;childLayout=stackLayout;horizontal=1;startSize=26;horizontalStack=0;resizeParent=1;resizeParentMax=0;resizeLast=0;collapsible=1;marginBottom=0;html=0;" vertex="1" parent="1">
          <mxGeometry x="1418" y="658" width="160" height="94" as="geometry" />
        </mxCell>
        <mxCell id="CpujZRGqxjHT9dfPmAvb-26" value="+ size: string&#xa;+ background: string" style="text;strokeColor=none;fillColor=none;align=left;verticalAlign=top;spacingLeft=4;spacingRight=4;overflow=hidden;rotatable=0;points=[[0,0.5],[1,0.5]];portConstraint=eastwest;" vertex="1" parent="CpujZRGqxjHT9dfPmAvb-25">
          <mxGeometry y="26" width="160" height="34" as="geometry" />
        </mxCell>
        <mxCell id="CpujZRGqxjHT9dfPmAvb-27" value="" style="line;strokeWidth=1;fillColor=none;align=left;verticalAlign=middle;spacingTop=-1;spacingLeft=3;spacingRight=3;rotatable=0;labelPosition=right;points=[];portConstraint=eastwest;" vertex="1" parent="CpujZRGqxjHT9dfPmAvb-25">
          <mxGeometry y="60" width="160" height="8" as="geometry" />
        </mxCell>
        <mxCell id="CpujZRGqxjHT9dfPmAvb-28" value="+ method(type): type" style="text;strokeColor=none;fillColor=none;align=left;verticalAlign=top;spacingLeft=4;spacingRight=4;overflow=hidden;rotatable=0;points=[[0,0.5],[1,0.5]];portConstraint=eastwest;" vertex="1" parent="CpujZRGqxjHT9dfPmAvb-25">
          <mxGeometry y="68" width="160" height="26" as="geometry" />
        </mxCell>
        <mxCell id="CpujZRGqxjHT9dfPmAvb-29" value="stitching" style="swimlane;fontStyle=1;align=center;verticalAlign=top;childLayout=stackLayout;horizontal=1;startSize=26;horizontalStack=0;resizeParent=1;resizeParentMax=0;resizeLast=0;collapsible=1;marginBottom=0;html=0;" vertex="1" parent="1">
          <mxGeometry x="1418" y="774" width="160" height="114" as="geometry" />
        </mxCell>
        <mxCell id="CpujZRGqxjHT9dfPmAvb-30" value="+ endPoint: number[]&#xa;+ opacity: number&#xa;+ radius: number[]" style="text;strokeColor=none;fillColor=none;align=left;verticalAlign=top;spacingLeft=4;spacingRight=4;overflow=hidden;rotatable=0;points=[[0,0.5],[1,0.5]];portConstraint=eastwest;" vertex="1" parent="CpujZRGqxjHT9dfPmAvb-29">
          <mxGeometry y="26" width="160" height="54" as="geometry" />
        </mxCell>
        <mxCell id="CpujZRGqxjHT9dfPmAvb-31" value="" style="line;strokeWidth=1;fillColor=none;align=left;verticalAlign=middle;spacingTop=-1;spacingLeft=3;spacingRight=3;rotatable=0;labelPosition=right;points=[];portConstraint=eastwest;" vertex="1" parent="CpujZRGqxjHT9dfPmAvb-29">
          <mxGeometry y="80" width="160" height="8" as="geometry" />
        </mxCell>
        <mxCell id="CpujZRGqxjHT9dfPmAvb-32" value="+ method(type): type" style="text;strokeColor=none;fillColor=none;align=left;verticalAlign=top;spacingLeft=4;spacingRight=4;overflow=hidden;rotatable=0;points=[[0,0.5],[1,0.5]];portConstraint=eastwest;" vertex="1" parent="CpujZRGqxjHT9dfPmAvb-29">
          <mxGeometry y="88" width="160" height="26" as="geometry" />
        </mxCell>
        <mxCell id="CpujZRGqxjHT9dfPmAvb-33" value="Sticker" style="swimlane;fontStyle=1;align=center;verticalAlign=top;childLayout=stackLayout;horizontal=1;startSize=26;horizontalStack=0;resizeParent=1;resizeParentMax=0;resizeLast=0;collapsible=1;marginBottom=0;html=0;" vertex="1" parent="1">
          <mxGeometry x="1408" y="1054" width="220" height="184" as="geometry" />
        </mxCell>
        <mxCell id="CpujZRGqxjHT9dfPmAvb-34" value="+ id: string&#xa;+ scale: number&#xa;+ rotation: number&#xa;+ x: number | StickerContent.x&#xa;+ y: number | StickerContent.y&#xa;+ width: StickerContent.width&#xa;+ height: Sticker.height&#xa;+ image: StickerContent.stickerUrl" style="text;strokeColor=none;fillColor=none;align=left;verticalAlign=top;spacingLeft=4;spacingRight=4;overflow=hidden;rotatable=0;points=[[0,0.5],[1,0.5]];portConstraint=eastwest;" vertex="1" parent="CpujZRGqxjHT9dfPmAvb-33">
          <mxGeometry y="26" width="220" height="124" as="geometry" />
        </mxCell>
        <mxCell id="CpujZRGqxjHT9dfPmAvb-35" value="" style="line;strokeWidth=1;fillColor=none;align=left;verticalAlign=middle;spacingTop=-1;spacingLeft=3;spacingRight=3;rotatable=0;labelPosition=right;points=[];portConstraint=eastwest;" vertex="1" parent="CpujZRGqxjHT9dfPmAvb-33">
          <mxGeometry y="150" width="220" height="8" as="geometry" />
        </mxCell>
        <mxCell id="CpujZRGqxjHT9dfPmAvb-36" value="- getStickerById(type): StickerContent" style="text;strokeColor=none;fillColor=none;align=left;verticalAlign=top;spacingLeft=4;spacingRight=4;overflow=hidden;rotatable=0;points=[[0,0.5],[1,0.5]];portConstraint=eastwest;" vertex="1" parent="CpujZRGqxjHT9dfPmAvb-33">
          <mxGeometry y="158" width="220" height="26" as="geometry" />
        </mxCell>
        <mxCell id="CpujZRGqxjHT9dfPmAvb-37" value="Frame" style="swimlane;fontStyle=1;align=center;verticalAlign=top;childLayout=stackLayout;horizontal=1;startSize=26;horizontalStack=0;resizeParent=1;resizeParentMax=0;resizeLast=0;collapsible=1;marginBottom=0;html=0;" vertex="1" parent="1">
          <mxGeometry x="1418" y="924" width="160" height="94" as="geometry" />
        </mxCell>
        <mxCell id="CpujZRGqxjHT9dfPmAvb-38" value="+ image: string&#xa;+ size: string" style="text;strokeColor=none;fillColor=none;align=left;verticalAlign=top;spacingLeft=4;spacingRight=4;overflow=hidden;rotatable=0;points=[[0,0.5],[1,0.5]];portConstraint=eastwest;" vertex="1" parent="CpujZRGqxjHT9dfPmAvb-37">
          <mxGeometry y="26" width="160" height="34" as="geometry" />
        </mxCell>
        <mxCell id="CpujZRGqxjHT9dfPmAvb-39" value="" style="line;strokeWidth=1;fillColor=none;align=left;verticalAlign=middle;spacingTop=-1;spacingLeft=3;spacingRight=3;rotatable=0;labelPosition=right;points=[];portConstraint=eastwest;" vertex="1" parent="CpujZRGqxjHT9dfPmAvb-37">
          <mxGeometry y="60" width="160" height="8" as="geometry" />
        </mxCell>
        <mxCell id="CpujZRGqxjHT9dfPmAvb-40" value="+ method(type): type" style="text;strokeColor=none;fillColor=none;align=left;verticalAlign=top;spacingLeft=4;spacingRight=4;overflow=hidden;rotatable=0;points=[[0,0.5],[1,0.5]];portConstraint=eastwest;" vertex="1" parent="CpujZRGqxjHT9dfPmAvb-37">
          <mxGeometry y="68" width="160" height="26" as="geometry" />
        </mxCell>
        <mxCell id="CpujZRGqxjHT9dfPmAvb-41" value="Filter" style="swimlane;fontStyle=1;align=center;verticalAlign=top;childLayout=stackLayout;horizontal=1;startSize=26;horizontalStack=0;resizeParent=1;resizeParentMax=0;resizeLast=0;collapsible=1;marginBottom=0;html=0;" vertex="1" parent="1">
          <mxGeometry x="1418" y="1264" width="160" height="86" as="geometry" />
        </mxCell>
        <mxCell id="CpujZRGqxjHT9dfPmAvb-42" value="+ field: type" style="text;strokeColor=none;fillColor=none;align=left;verticalAlign=top;spacingLeft=4;spacingRight=4;overflow=hidden;rotatable=0;points=[[0,0.5],[1,0.5]];portConstraint=eastwest;" vertex="1" parent="CpujZRGqxjHT9dfPmAvb-41">
          <mxGeometry y="26" width="160" height="26" as="geometry" />
        </mxCell>
        <mxCell id="CpujZRGqxjHT9dfPmAvb-43" value="" style="line;strokeWidth=1;fillColor=none;align=left;verticalAlign=middle;spacingTop=-1;spacingLeft=3;spacingRight=3;rotatable=0;labelPosition=right;points=[];portConstraint=eastwest;" vertex="1" parent="CpujZRGqxjHT9dfPmAvb-41">
          <mxGeometry y="52" width="160" height="8" as="geometry" />
        </mxCell>
        <mxCell id="CpujZRGqxjHT9dfPmAvb-44" value="+ method(type): type" style="text;strokeColor=none;fillColor=none;align=left;verticalAlign=top;spacingLeft=4;spacingRight=4;overflow=hidden;rotatable=0;points=[[0,0.5],[1,0.5]];portConstraint=eastwest;" vertex="1" parent="CpujZRGqxjHT9dfPmAvb-41">
          <mxGeometry y="60" width="160" height="26" as="geometry" />
        </mxCell>
        <mxCell id="CpujZRGqxjHT9dfPmAvb-45" value="StickerContent" style="swimlane;fontStyle=1;align=center;verticalAlign=top;childLayout=stackLayout;horizontal=1;startSize=26;horizontalStack=0;resizeParent=1;resizeParentMax=0;resizeLast=0;collapsible=1;marginBottom=0;html=0;" vertex="1" parent="1">
          <mxGeometry x="1788" y="1054" width="160" height="144" as="geometry" />
        </mxCell>
        <mxCell id="CpujZRGqxjHT9dfPmAvb-46" value="+Â stickerUrl: string&#xa;+ width: number&#xa;+ height: number&#xa;+ x: number&#xa;+ y: number" style="text;strokeColor=none;fillColor=none;align=left;verticalAlign=top;spacingLeft=4;spacingRight=4;overflow=hidden;rotatable=0;points=[[0,0.5],[1,0.5]];portConstraint=eastwest;" vertex="1" parent="CpujZRGqxjHT9dfPmAvb-45">
          <mxGeometry y="26" width="160" height="84" as="geometry" />
        </mxCell>
        <mxCell id="CpujZRGqxjHT9dfPmAvb-47" value="" style="line;strokeWidth=1;fillColor=none;align=left;verticalAlign=middle;spacingTop=-1;spacingLeft=3;spacingRight=3;rotatable=0;labelPosition=right;points=[];portConstraint=eastwest;" vertex="1" parent="CpujZRGqxjHT9dfPmAvb-45">
          <mxGeometry y="110" width="160" height="8" as="geometry" />
        </mxCell>
        <mxCell id="CpujZRGqxjHT9dfPmAvb-48" value="+ method(type): type" style="text;strokeColor=none;fillColor=none;align=left;verticalAlign=top;spacingLeft=4;spacingRight=4;overflow=hidden;rotatable=0;points=[[0,0.5],[1,0.5]];portConstraint=eastwest;" vertex="1" parent="CpujZRGqxjHT9dfPmAvb-45">
          <mxGeometry y="118" width="160" height="26" as="geometry" />
        </mxCell>
        <mxCell id="CpujZRGqxjHT9dfPmAvb-49" value="1" style="endArrow=open;html=1;endSize=12;startArrow=diamondThin;startSize=14;startFill=1;edgeStyle=orthogonalEdgeStyle;align=left;verticalAlign=bottom;" edge="1" parent="1">
          <mxGeometry x="-1" y="3" relative="1" as="geometry">
            <mxPoint x="1628" y="1114" as="sourcePoint" />
            <mxPoint x="1788" y="1114" as="targetPoint" />
          </mxGeometry>
        </mxCell>
      </root>
    </mxGraphModel>
  </diagram>
</mxfile>
